External Loads File
version=1
nRows=85
nColumns=13
Range=5.000000e-03-10 seconds
endheader
time 	forceRightX 	forceRightY 	forceRightZ 	pointRightX 	pointRightY 	pointRightZ 	forceLeftX 	forceLeftY 	forceLeftZ 	pointLeftX 	pointLeftY 	pointLeftZ 		
7.505000 -37.361503 -23.858020 -0.000000 0.206019 0.467798 -0.149920 87.939480 1031.999256 -0.000000 0.339111 0.180485 -0.379497
7.510000 -43.576811 -24.973200 -0.000000 0.214445 0.474825 -0.149738 120.009315 1019.335565 -0.000000 0.330533 0.174588 -0.379454
7.515000 -48.633261 -23.916632 -0.000000 0.222684 0.481156 -0.150511 148.072760 999.784106 -0.000000 0.321751 0.169326 -0.379388
7.520000 -52.462742 -20.063355 -0.000000 0.231107 0.487161 -0.151117 173.171641 974.363024 -0.000000 0.312774 0.164758 -0.379289
7.525000 -55.003894 -13.049325 -0.000000 0.239646 0.492084 -0.151531 194.878316 944.714621 -0.000000 0.303621 0.160804 -0.379244
7.530000 -56.262361 -2.693708 -0.000000 0.248387 0.496527 -0.152096 214.690546 912.361436 -0.000000 0.294304 0.157565 -0.379217
7.535000 -56.270573 10.810715 -0.000000 0.257197 0.500238 -0.152563 233.142481 878.994572 -0.000000 0.284875 0.154988 -0.379145
7.540000 -55.132675 27.032468 -0.000000 0.266182 0.503254 -0.152949 251.690655 845.989041 -0.000000 0.275369 0.153070 -0.379073
7.545000 -53.073208 45.232520 -0.000000 0.274791 0.505534 -0.153461 270.413820 814.991029 -0.000000 0.265772 0.151825 -0.379037
7.550000 -50.207790 64.767115 -0.000000 0.283894 0.506971 -0.153581 292.608242 786.239063 -0.000000 0.256117 0.151313 -0.378941
7.555000 -46.894323 84.681939 -0.000000 0.292677 0.507719 -0.153478 317.167307 760.678441 -0.000000 0.246486 0.151444 -0.378854
7.560000 -43.408169 104.189955 -0.000000 0.301342 0.507528 -0.153127 344.839103 737.844694 -0.000000 0.237003 0.152327 -0.378748
7.565000 -40.189981 122.579363 -0.000000 0.309588 0.506266 -0.152475 374.992277 717.263570 -0.000000 0.227725 0.153930 -0.378659
7.570000 -37.626196 139.495754 -0.000000 0.317604 0.504451 -0.151971 407.532658 697.876407 -0.000000 0.218668 0.156299 -0.378454
7.575000 -36.040168 155.018092 -0.000000 0.325385 0.501673 -0.151441 442.285545 678.305888 -0.000000 0.209665 0.159332 -0.378505
7.580000 -36.252742 169.511422 -0.000000 0.332656 0.498477 -0.150945 476.468906 658.647564 -0.000000 0.201428 0.163133 -0.377967
7.585000 -38.091354 183.826025 -0.000000 0.339906 0.494473 -0.150492 510.841570 636.428374 -0.000000 0.193519 0.167626 -0.378401
7.590000 -41.580977 198.847914 -0.000000 0.346798 0.489841 -0.150052 544.010186 610.066295 -0.000000 0.185474 0.172700 -0.377288
7.595000 -46.934593 215.388510 -0.000000 0.353397 0.484468 -0.149611 573.194763 578.744819 -0.000000 0.177874 0.178353 -0.377032
7.600000 -53.717080 234.242988 -0.000000 0.359538 0.478420 -0.149205 596.696450 540.221085 -0.000000 0.170013 0.184597 -0.376174
7.605000 -62.461146 255.720424 -0.000000 0.365766 0.471586 -0.148583 609.734877 495.220508 -0.000000 0.163544 0.191117 -0.376509
7.610000 -72.119256 280.174670 -0.000000 0.371746 0.464270 -0.148243 610.558838 441.232640 -0.000000 0.156713 0.198078 -0.376369
7.615000 -82.652824 307.425204 -0.000000 0.377296 0.456179 -0.147864 594.937405 379.478761 -0.000000 0.150136 0.205573 -0.376236
7.620000 -94.090999 337.015128 -0.000000 0.382475 0.447640 -0.147630 559.602150 312.567328 -0.000000 0.143863 0.213221 -0.376051
7.625000 -105.358626 368.633956 -0.000000 0.387372 0.438649 -0.147475 504.316368 242.851404 -0.000000 0.137948 0.221864 -0.375921
7.630000 -116.655272 401.562155 -0.000000 0.392056 0.429329 -0.147195 431.166826 176.408225 -0.000000 0.132316 0.230622 -0.375447
7.635000 -127.781748 435.233950 -0.000000 0.396210 0.419528 -0.147346 347.532376 118.921981 -0.000000 0.127282 0.239724 -0.375839
7.640000 -138.336235 469.290764 -0.000000 0.399907 0.409358 -0.147515 263.790833 74.472785 -0.000000 0.122651 0.249145 -0.375815
7.645000 -148.578477 503.375686 -0.000000 0.403156 0.398956 -0.147617 189.041799 44.589600 -0.000000 0.118626 0.258751 -0.375904
7.650000 -158.077495 537.514406 -0.000000 0.406027 0.388355 -0.147609 128.760434 27.619082 -0.000000 0.115260 0.268698 -0.375995
7.655000 -166.293580 571.896742 -0.000000 0.408564 0.377351 -0.147634 84.783943 20.598116 -0.000000 0.112477 0.278843 -0.376074
7.660000 -174.013554 606.376293 -0.000000 0.410366 0.366301 -0.147366 56.399609 20.384764 -0.000000 0.110455 0.289031 -0.376201
7.665000 -180.051267 641.304964 -0.000000 0.411923 0.355205 -0.147506 41.359290 23.782514 -0.000000 0.109275 0.299465 -0.376442
7.670000 -183.361779 676.790674 -0.000000 0.412789 0.343884 -0.147217 36.529813 28.296703 -0.000000 0.108571 0.310123 -0.376459
7.675000 -184.361997 712.302285 -0.000000 0.413277 0.332559 -0.146987 38.483964 32.232246 -0.000000 0.108675 0.320680 -0.376531
7.680000 -182.178850 747.469456 -0.000000 0.413338 0.321231 -0.146865 44.166282 34.578030 -0.000000 0.109475 0.331239 -0.376623
7.685000 -176.191102 781.749909 -0.000000 0.412908 0.309905 -0.146746 51.174780 34.967083 -0.000000 0.110942 0.341863 -0.376715
7.690000 -165.058827 814.745429 -0.000000 0.411814 0.298764 -0.146863 57.841937 33.389833 -0.000000 0.113020 0.353127 -0.376768
7.695000 -152.740179 845.064803 -0.000000 0.410345 0.287684 -0.146420 62.888814 30.447916 -0.000000 0.115683 0.363513 -0.376754
7.700000 -138.471273 872.539538 -0.000000 0.408023 0.276928 -0.145896 65.752689 26.527305 -0.000000 0.118985 0.373539 -0.376834
7.705000 -121.313800 897.134482 -0.000000 0.405196 0.266477 -0.145960 66.239688 21.994768 -0.000000 0.122875 0.383740 -0.376799
7.710000 -102.701365 918.635022 -0.000000 0.401880 0.256262 -0.145839 64.375185 17.330546 -0.000000 0.127285 0.393702 -0.377138
7.715000 -84.088157 937.039701 -0.000000 0.398107 0.246316 -0.145770 60.423265 12.865894 -0.000000 0.131704 0.403386 -0.376447
7.720000 -62.192644 952.756509 -0.000000 0.393756 0.236709 -0.145666 54.823090 8.488159 -0.000000 0.137952 0.412955 -0.377046
7.725000 -43.081531 965.380342 -0.000000 0.388976 0.227505 -0.145767 47.939816 4.547408 -0.000000 0.143411 0.421969 -0.376443
7.730000 -21.711682 975.197115 -0.000000 0.383753 0.218491 -0.145630 40.247902 0.647777 -0.000000 0.149994 0.430840 -0.376519
7.735000 0.637250 981.983747 -0.000000 0.377929 0.209906 -0.145386 32.116587 -3.299721 -0.000000 0.157229 0.439452 -0.377039
7.740000 21.205471 985.569643 -0.000000 0.371866 0.201834 -0.145267 23.838207 -7.409001 -0.000000 0.164442 0.447699 -0.376164
7.745000 44.744726 985.584175 -0.000000 0.365278 0.194105 -0.145063 15.508341 -11.976039 -0.000000 0.173038 0.455710 -0.376722
7.750000 64.117224 981.950671 -0.000000 0.358366 0.187003 -0.144976 7.172410 -16.940966 -0.000000 0.180701 0.463238 -0.376462
7.755000 84.056628 974.111059 -0.000000 0.351121 0.180243 -0.144869 -1.370561 -22.292374 -0.000000 0.188837 0.470747 -0.376307
7.760000 101.348165 961.907007 -0.000000 0.343490 0.174072 -0.144624 -10.225986 -27.732772 -0.000000 0.196839 0.477159 -0.376005
7.765000 118.699755 944.680494 -0.000000 0.335592 0.168584 -0.144337 -19.506161 -32.714805 -0.000000 0.205548 0.482968 -0.375974
7.770000 134.829744 922.190375 -0.000000 0.327462 0.163718 -0.144126 -28.948617 -36.443395 -0.000000 0.214368 0.488458 -0.375817
7.775000 149.512195 894.221761 -0.000000 0.319160 0.159355 -0.143816 -38.032526 -38.045861 -0.000000 0.223367 0.493382 -0.375669
7.780000 162.761581 860.647060 -0.000000 0.310395 0.155752 -0.143026 -46.160549 -36.829133 -0.000000 0.232394 0.497641 -0.375652
7.785000 173.835482 821.609849 -0.000000 0.301746 0.152766 -0.142634 -52.819930 -32.474000 -0.000000 0.241734 0.501228 -0.375642
7.790000 181.919419 777.461021 -0.000000 0.293108 0.150449 -0.142356 -57.711602 -25.035197 -0.000000 0.250947 0.503989 -0.375752
7.795000 187.698693 728.389734 -0.000000 0.284374 0.148852 -0.142187 -60.812678 -14.738354 -0.000000 0.260180 0.506218 -0.375858
7.800000 191.062892 674.917993 -0.000000 0.275661 0.147929 -0.142017 -62.232686 -2.013306 -0.000000 0.269524 0.507621 -0.376257
7.805000 191.076928 618.028537 -0.000000 0.267016 0.147766 -0.141873 -62.223034 12.534004 -0.000000 0.278503 0.508438 -0.376591
7.810000 188.038905 558.603376 -0.000000 0.258489 0.148320 -0.141813 -61.185549 28.380538 -0.000000 0.287202 0.508581 -0.377342
7.815000 182.407872 497.649224 -0.000000 0.250070 0.149629 -0.141804 -59.604591 45.138251 -0.000000 0.295730 0.507870 -0.377557
7.820000 174.285662 436.473679 -0.000000 0.241799 0.151633 -0.141899 -58.074297 62.605357 -0.000000 0.303883 0.506051 -0.377961
7.825000 164.070933 376.457922 -0.000000 0.233727 0.154369 -0.142051 -57.244173 80.893173 -0.000000 0.311713 0.503683 -0.378368
7.830000 152.514608 318.927314 -0.000000 0.225831 0.157826 -0.142373 -57.686714 100.447599 -0.000000 0.319388 0.500685 -0.378998
7.835000 140.152002 265.244253 -0.000000 0.218070 0.161835 -0.142609 -59.929250 121.861011 -0.000000 0.326651 0.496366 -0.379687
7.840000 127.479871 216.607034 -0.000000 0.210527 0.166329 -0.142754 -64.439629 145.710001 -0.000000 0.333714 0.491789 -0.380273
7.845000 115.332803 173.705752 -0.000000 0.203161 0.171371 -0.143024 -71.305313 172.535123 -0.000000 0.340567 0.486322 -0.380968
7.850000 104.241941 136.982654 -0.000000 0.195973 0.176810 -0.143269 -80.476418 202.564526 -0.000000 0.347258 0.480229 -0.381514
7.855000 94.744864 106.408646 -0.000000 0.188992 0.182826 -0.143468 -91.562925 235.675395 -0.000000 0.353681 0.473239 -0.381990
7.860000 87.097578 81.695905 -0.000000 0.182232 0.189253 -0.143562 -104.278638 271.217349 -0.000000 0.359930 0.465963 -0.382285
7.865000 81.446246 62.235473 -0.000000 0.175744 0.196070 -0.143602 -118.264438 308.212954 -0.000000 0.365729 0.458117 -0.382309
7.870000 77.837003 47.121094 -0.000000 0.169600 0.203354 -0.143782 -132.525813 345.744497 -0.000000 0.371678 0.449683 -0.382610
7.875000 75.966883 35.664380 -0.000000 0.163800 0.211042 -0.143683 -146.998999 382.558619 -0.000000 0.377278 0.440753 -0.382626
7.880000 75.526625 27.163651 -0.000000 0.158459 0.219154 -0.143721 -161.561334 417.657393 -0.000000 0.382464 0.431492 -0.382578
7.885000 76.192694 20.943484 -0.000000 0.153411 0.227667 -0.143609 -175.748161 450.556266 -0.000000 0.387342 0.421941 -0.382576
7.890000 77.586387 16.586530 -0.000000 0.149229 0.236548 -0.143624 -189.918335 480.880706 -0.000000 0.391842 0.412072 -0.382503
7.895000 79.380384 13.706058 -0.000000 0.145462 0.245592 -0.143544 -203.893357 508.840335 -0.000000 0.396047 0.402134 -0.382420
7.900000 81.279005 12.042072 -0.000000 0.142254 0.255136 -0.143499 -217.461984 534.899048 -0.000000 0.399794 0.392299 -0.382433
7.905000 83.069704 11.248049 -0.000000 0.139549 0.264781 -0.143483 -229.227437 560.077128 -0.000000 0.403101 0.381673 -0.382417
7.910000 84.572726 11.311170 -0.000000 0.137385 0.274594 -0.143707 -239.767282 584.526390 -0.000000 0.405885 0.370999 -0.382381
7.915000 85.708820 11.978382 -0.000000 0.135802 0.284577 -0.143719 -248.163220 608.878955 -0.000000 0.408139 0.360103 -0.382086
7.920000 86.428539 12.971841 -0.000000 0.134195 0.294776 -0.144354 -253.645626 633.579919 -0.000000 0.409772 0.349102 -0.382037
7.925000 86.645108 14.102017 -0.000000 0.133786 0.305114 -0.144497 -256.477138 658.574345 -0.000000 0.410606 0.338030 -0.382963
